<svg width="224" height="100" viewBox="0 0 224 100" fill="none" xmlns="http://www.w3.org/2000/svg">
<path d="M0.0404459 48.6768C0.321655 52.6711 1.50417 56.551 3.50006 60.0278C7.70646 67.3792 14.9199 72.7016 22.689 75.8652C32.3953 79.8177 43.2152 79.9395 53.5161 79.0581C63.0836 78.2396 72.5538 76.3422 82.1565 75.9511C89.5828 75.7146 97.0165 75.8911 104.423 76.4796C118.793 77.4946 133.102 79.3777 147.32 81.6606C151.17 82.2713 155.013 82.9274 158.847 83.629C159.209 83.6608 159.568 83.7271 159.918 83.8269C159.987 83.8553 160.099 83.8331 160.163 83.873C160.279 83.9456 159.695 83.6892 160.049 83.9803C160.542 84.4952 160.982 85.0585 161.361 85.6614L166.612 92.3858C168.118 94.3142 169.516 96.657 171.462 98.177C172.834 99.2319 174.49 99.8589 176.219 99.9788C177.949 100.099 179.676 99.7064 181.182 98.8511C182.755 97.8619 184.01 96.4437 184.797 94.7652C186.004 92.5608 187.445 90.4911 189.095 88.5913C195.342 81.3392 204.024 76.8786 211.286 70.7766C214.803 67.942 217.805 64.5271 220.161 60.6811C222.171 57.2007 223.42 53.3378 223.828 49.3443C224.698 41.2346 222.197 32.9642 217.991 26.0651C213.416 18.6531 206.843 12.6666 199.02 8.78589C190.232 4.33029 180.507 2.15998 170.758 1.07846C160.408 -0.0698146 149.938 -0.0662351 139.538 0.0496945C127.866 0.178987 116.215 0.689773 104.585 1.58204C92.939 2.47903 81.3392 3.75404 69.7853 5.40707C58.6989 6.99323 47.4769 8.64646 36.6249 11.4531C27.0381 13.9324 17.4782 17.8078 10.3194 24.8296C3.95416 31.073 -0.472964 39.6166 0.0404459 48.6768Z" fill="#F67669"/>
<path d="M53.6285 51.2566C53.1545 51.2354 52.6901 51.1167 52.2645 50.9081C51.8389 50.6995 51.4613 50.4055 51.1555 50.0446C50.8496 49.6837 50.6222 49.2637 50.4875 48.811C50.3527 48.3583 50.3136 47.8828 50.3726 47.4144L50.619 45.4846C50.666 45.1144 50.622 44.7384 50.4907 44.389C50.3595 44.0395 50.1449 43.7269 49.8654 43.4782L48.4088 42.183C47.9318 41.7589 47.5835 41.2106 47.4034 40.5998C47.2232 39.9891 47.2184 39.3404 47.3895 38.7271C47.5606 38.1138 47.9007 37.5604 48.3714 37.1294C48.8421 36.6985 49.4245 36.4072 50.0529 36.2885L51.9733 35.9255C52.3414 35.856 52.687 35.6985 52.9804 35.4666C53.2737 35.2346 53.506 34.9351 53.6573 34.594L54.4455 32.8128C54.7035 32.2305 55.1202 31.7317 55.6482 31.3727C56.1763 31.0136 56.7947 30.8088 57.4336 30.7812C58.0726 30.7537 58.7065 30.9045 59.2638 31.2167C59.8211 31.5288 60.2795 31.9899 60.5873 32.5478L61.5269 34.2529C61.7071 34.5803 61.9647 34.8591 62.2774 35.0653C62.5901 35.2716 62.9485 35.399 63.3217 35.4366L65.2658 35.632C65.9021 35.6961 66.5078 35.936 67.0142 36.3248C67.5207 36.7135 67.9077 37.2355 68.1316 37.8318C68.3554 38.428 68.4071 39.0747 68.2809 39.6987C68.1546 40.3226 67.8555 40.899 67.4172 41.3626L66.0783 42.7791C65.8213 43.0505 65.6345 43.3801 65.5343 43.7394C65.434 44.0988 65.4231 44.477 65.5027 44.8414L65.9157 46.7436C66.0509 47.3655 66.0086 48.0127 65.7935 48.6119C65.5784 49.2111 65.1992 49.7386 64.6986 50.1345C64.1981 50.5305 63.5962 50.7793 62.961 50.8526C62.3259 50.926 61.6828 50.8211 61.1044 50.5498L59.3364 49.7209C58.9975 49.5611 58.6246 49.4859 58.2499 49.502C57.8752 49.518 57.5101 49.6247 57.1862 49.8128L55.497 50.7917C54.9315 51.121 54.2831 51.2823 53.6285 51.2566V51.2566Z" fill="white"/>
<path d="M81.1537 50.4611C80.2816 50.4211 79.4569 50.0547 78.8448 49.4353C78.4749 49.0455 78.199 48.577 78.038 48.0653C77.877 47.5537 77.835 47.0123 77.9153 46.4821L78.1414 44.7115C78.1895 44.3345 78.1448 43.9514 78.0111 43.5954C77.8774 43.2394 77.6587 42.9211 77.374 42.6678L76.0227 41.4663C75.6242 41.1278 75.3066 40.7051 75.0929 40.2291C74.8793 39.753 74.775 39.2355 74.7877 38.7143C74.8172 37.9421 75.1094 37.2029 75.6164 36.6176C76.1234 36.0323 76.8151 35.6358 77.5782 35.493L79.4762 35.1342C79.8515 35.0633 80.2038 34.9026 80.5028 34.666C80.8018 34.4293 81.0385 34.1239 81.1924 33.776L81.8997 32.1776C82.1526 31.5709 82.5688 31.0454 83.1025 30.659C83.6362 30.2725 84.2667 30.0401 84.9245 29.9873C85.5693 29.9509 86.2112 30.0974 86.7756 30.4099C87.34 30.7224 87.8036 31.1879 88.1125 31.7523L89.0412 33.4376C89.225 33.7712 89.4876 34.0553 89.8064 34.2654C90.1252 34.4754 90.4905 34.6052 90.8709 34.6434L92.6727 34.8246C93.1953 34.8652 93.7023 35.0215 94.1565 35.2819C94.6107 35.5423 95.0008 35.9004 95.2983 36.3299C95.7299 36.9719 95.9297 37.7407 95.8651 38.5104C95.8004 39.2801 95.4751 40.0052 94.9424 40.567L93.6191 41.9671C93.3576 42.2437 93.1676 42.5795 93.0654 42.9454C92.9633 43.3113 92.952 43.6965 93.0326 44.0677L93.414 45.8239C93.5363 46.3308 93.5439 46.8584 93.4364 47.3686C93.3289 47.8788 93.1088 48.3589 92.7922 48.7742C92.3139 49.3844 91.6408 49.814 90.884 49.9922C90.1272 50.1703 89.332 50.0864 88.6296 49.7543L86.8799 48.9339C86.5348 48.7721 86.1553 48.6961 85.7741 48.7126C85.393 48.7291 85.0216 48.8376 84.6919 49.0286L83.0222 49.9962C82.4567 50.3254 81.8084 50.4868 81.1537 50.4611V50.4611Z" fill="white"/>
<path d="M108.751 50.345C108.277 50.3238 107.812 50.2051 107.387 49.9965C106.961 49.7879 106.583 49.4939 106.278 49.133C105.972 48.7721 105.744 48.3521 105.61 47.8994C105.475 47.4467 105.436 46.9712 105.495 46.5028L105.741 44.573C105.788 44.2028 105.744 43.8269 105.613 43.4774C105.482 43.1279 105.267 42.8153 104.987 42.5666L103.531 41.2714C103.054 40.8473 102.706 40.299 102.525 39.6883C102.345 39.0775 102.341 38.4288 102.512 37.8155C102.683 37.2022 103.023 36.6488 103.493 36.2178C103.964 35.7869 104.547 35.4956 105.175 35.3769L107.095 35.0139C107.463 34.9444 107.809 34.7869 108.102 34.555C108.396 34.323 108.628 34.0235 108.779 33.6824L109.568 31.9012C109.826 31.3189 110.242 30.8201 110.77 30.4611C111.298 30.1021 111.917 29.8972 112.556 29.8696C113.195 29.8421 113.829 29.9929 114.386 30.3051C114.943 30.6172 115.402 31.0783 115.709 31.6362L116.649 33.3413C116.829 33.6687 117.087 33.9475 117.399 34.1538C117.712 34.36 118.071 34.4874 118.444 34.5249L120.388 34.7204C121.024 34.7845 121.63 35.0244 122.136 35.4132C122.643 35.8019 123.03 36.3239 123.254 36.9202C123.477 37.5164 123.529 38.1631 123.403 38.7871C123.277 39.411 122.978 39.9874 122.539 40.451L121.2 41.8675C120.943 42.1389 120.757 42.4685 120.656 42.8278C120.556 43.1872 120.545 43.5654 120.625 43.9298L121.038 45.8319C121.173 46.4539 121.131 47.1011 120.916 47.7003C120.7 48.2995 120.321 48.8269 119.821 49.2229C119.32 49.6189 118.718 49.8676 118.083 49.941C117.448 50.0144 116.805 49.9095 116.226 49.6382L114.459 48.8093C114.12 48.6495 113.747 48.5743 113.372 48.5904C112.997 48.6064 112.632 48.7131 112.308 48.9012L110.619 49.8801C110.054 50.2094 109.405 50.3707 108.751 50.345V50.345Z" fill="white"/>
<path opacity="0.2" d="M135.593 49.6203C135.119 49.5991 134.655 49.4804 134.229 49.2719C133.804 49.0633 133.426 48.7693 133.12 48.4084C132.814 48.0474 132.587 47.6274 132.452 47.1747C132.317 46.7221 132.278 46.2465 132.337 45.7781L132.584 43.8483C132.631 43.4782 132.587 43.1022 132.455 42.7527C132.324 42.4032 132.109 42.0907 131.83 41.8419L130.373 40.5467C129.896 40.1227 129.548 39.5743 129.368 38.9636C129.188 38.3529 129.183 37.7041 129.354 37.0909C129.525 36.4776 129.865 35.9241 130.336 35.4932C130.807 35.0622 131.389 34.7709 132.018 34.6522L133.938 34.2893C134.306 34.2198 134.652 34.0623 134.945 33.8303C135.238 33.5983 135.471 33.2989 135.622 32.9577L136.41 31.1765C136.668 30.5942 137.085 30.0954 137.613 29.7364C138.141 29.3774 138.759 29.1725 139.398 29.145C140.037 29.1174 140.671 29.2682 141.228 29.5804C141.786 29.8926 142.244 30.3537 142.552 30.9115L143.491 32.6167C143.672 32.944 143.929 33.2229 144.242 33.4291C144.555 33.6353 144.913 33.7627 145.286 33.8003L147.23 33.9957C147.867 34.0598 148.472 34.2998 148.979 34.6885C149.485 35.0773 149.872 35.5993 150.096 36.1955C150.32 36.7918 150.372 37.4384 150.245 38.0624C150.119 38.6864 149.82 39.2627 149.382 39.7263L148.043 41.1428C147.786 41.4142 147.599 41.7438 147.499 42.1032C147.399 42.4625 147.388 42.8407 147.467 43.2052L147.88 45.1073C148.016 45.7292 147.973 46.3764 147.758 46.9756C147.543 47.5749 147.164 48.1023 146.663 48.4983C146.163 48.8943 145.561 49.143 144.926 49.2164C144.29 49.2898 143.647 49.1849 143.069 48.9136L141.301 48.0846C140.962 47.9248 140.589 47.8497 140.214 47.8657C139.84 47.8817 139.475 47.9884 139.151 48.1765L137.462 49.1554C136.896 49.4847 136.248 49.646 135.593 49.6203V49.6203Z" fill="black"/>
<path opacity="0.2" d="M162.436 48.8956C161.962 48.8744 161.498 48.7558 161.072 48.5472C160.646 48.3386 160.269 48.0446 159.963 47.6837C159.657 47.3228 159.43 46.9027 159.295 46.4501C159.16 45.9974 159.121 45.5219 159.18 45.0534L159.426 43.1236C159.473 42.7535 159.429 42.3775 159.298 42.028C159.167 41.6785 158.952 41.366 158.673 41.1172L157.216 39.822C156.739 39.398 156.391 38.8496 156.211 38.2389C156.031 37.6282 156.026 36.9795 156.197 36.3662C156.368 35.7529 156.708 35.1994 157.179 34.7685C157.649 34.3375 158.232 34.0462 158.86 33.9275L160.781 33.5646C161.149 33.4951 161.494 33.3376 161.788 33.1056C162.081 32.8737 162.313 32.5742 162.465 32.233L163.253 30.4518C163.511 29.8695 163.927 29.3707 164.456 29.0117C164.984 28.6527 165.602 28.4478 166.241 28.4203C166.88 28.3927 167.514 28.5435 168.071 28.8557C168.628 29.1679 169.087 29.629 169.395 30.1868L170.334 31.892C170.514 32.2194 170.772 32.4982 171.085 32.7044C171.397 32.9106 171.756 33.038 172.129 33.0756L174.073 33.2711C174.709 33.3351 175.315 33.5751 175.822 33.9639C176.328 34.3526 176.715 34.8746 176.939 35.4709C177.163 36.0671 177.214 36.7138 177.088 37.3377C176.962 37.9617 176.663 38.5381 176.225 39.0017L174.886 40.4182C174.629 40.6896 174.442 41.0192 174.342 41.3785C174.241 41.7379 174.23 42.1161 174.31 42.4805L174.723 44.3826C174.858 45.0046 174.816 45.6517 174.601 46.251C174.386 46.8502 174.007 47.3776 173.506 47.7736C173.005 48.1696 172.404 48.4183 171.768 48.4917C171.133 48.5651 170.49 48.4602 169.912 48.1889L168.144 47.3599C167.805 47.2002 167.432 47.125 167.057 47.141C166.683 47.1571 166.317 47.2638 165.994 47.4519L164.304 48.4308C163.739 48.76 163.09 48.9213 162.436 48.8956Z" fill="black"/>
</svg>
